<?xml version="1.0" standalone="no"?>
<!DOCTYPE svg PUBLIC "-//W3C//DTD SVG 20010904//EN"
 "http://www.w3.org/TR/2001/REC-SVG-20010904/DTD/svg10.dtd">
<svg version="1.0" xmlns="http://www.w3.org/2000/svg"
 width="1088.000000pt" height="960.000000pt" viewBox="0 0 1088.000000 960.000000"
 preserveAspectRatio="xMidYMid meet">

<g transform="translate(0.000000,960.000000) scale(0.100000,-0.100000)"
fill="#000000" stroke="none">
<path d="M5715 8195 c-222 -26 -404 -68 -620 -145 -106 -38 -377 -177 -491
-253 -412 -273 -732 -649 -923 -1084 -122 -278 -179 -528 -208 -916 -7 -86 11
-331 33 -472 18 -109 52 -273 64 -300 4 -11 20 -58 35 -105 57 -186 148 -376
262 -550 68 -103 174 -245 196 -261 5 -4 7 -14 5 -22 -1 -9 -113 -127 -248
-263 l-245 -246 -93 17 c-79 15 -104 16 -164 6 -40 -7 -95 -24 -122 -38 -62
-33 -816 -777 -876 -863 -121 -177 -100 -417 50 -567 153 -153 391 -176 572
-56 31 21 231 211 445 423 424 422 434 434 455 567 9 59 3 147 -18 243 -4 22
26 56 249 278 l254 254 54 -46 c58 -48 278 -200 344 -237 186 -103 338 -167
540 -228 373 -113 848 -129 1223 -41 23 5 63 15 90 21 122 29 338 112 481 183
464 234 842 606 1096 1080 20 39 45 91 55 117 10 25 28 66 38 90 70 156 117
341 161 634 19 126 24 363 12 495 -60 623 -297 1134 -726 1566 -238 239 -456
389 -775 532 -350 157 -826 231 -1205 187z m570 -395 c127 -25 281 -61 300
-69 11 -5 61 -24 110 -42 383 -139 758 -437 1002 -799 86 -127 166 -282 223
-435 4 -11 12 -31 18 -45 5 -14 15 -45 22 -70 7 -25 18 -65 25 -90 7 -25 18
-70 24 -100 6 -30 16 -80 22 -110 6 -30 14 -153 16 -272 5 -174 2 -242 -12
-340 -44 -317 -155 -611 -329 -871 -70 -105 -191 -256 -254 -318 -292 -283
-597 -458 -992 -569 -256 -72 -650 -78 -945 -15 -104 22 -252 66 -287 85 -10
6 -22 10 -28 10 -28 0 -253 113 -365 183 -529 331 -874 863 -970 1497 -16 106
-23 438 -10 517 3 21 11 67 16 103 12 71 45 221 58 260 5 14 15 45 22 70 17
59 103 260 142 330 96 175 195 307 347 464 193 199 375 331 615 446 214 103
444 169 675 194 75 8 498 -2 555 -14z"/>
<path d="M4802 7228 c3 -7 24 -16 48 -19 62 -8 95 -50 112 -143 19 -106 12
-1555 -8 -1607 -18 -43 -59 -69 -113 -69 -28 0 -41 -4 -41 -14 0 -27 50 -32
183 -19 68 6 69 6 108 58 l39 52 0 751 c0 783 4 877 42 940 25 40 46 52 96 52
46 0 98 -32 123 -75 34 -57 39 -149 39 -702 0 -348 4 -543 10 -543 5 0 12 11
16 24 3 14 4 282 2 595 -1 314 1 571 5 571 7 0 46 -80 94 -190 8 -19 30 -68
49 -108 19 -40 34 -75 34 -77 0 -3 16 -39 35 -81 19 -41 35 -77 35 -79 0 -2
17 -41 39 -87 21 -45 49 -105 61 -133 12 -27 35 -78 51 -113 16 -35 29 -65 29
-68 0 -2 16 -38 35 -80 19 -41 35 -77 35 -79 0 -2 17 -41 38 -87 21 -45 47
-103 57 -128 27 -66 53 -86 130 -99 73 -13 90 -9 75 17 -12 21 -50 108 -105
237 -24 55 -62 143 -85 195 -73 166 -110 252 -154 355 -44 102 -129 294 -146
330 -6 11 -50 112 -99 225 l-90 205 -391 3 c-312 2 -391 0 -388 -10z"/>
<path d="M6978 7233 c-121 -3 -127 -5 -134 -26 -3 -12 -16 -49 -29 -82 -84
-219 -116 -305 -128 -340 -25 -72 -98 -268 -127 -345 -29 -75 -70 -186 -115
-310 -13 -36 -35 -96 -50 -135 -34 -88 -105 -286 -105 -291 0 -2 4 -4 8 -4 5
0 20 26 34 58 25 58 38 90 103 267 20 55 43 114 50 130 7 17 36 95 64 175 29
80 57 154 62 165 5 11 22 56 37 100 103 289 198 533 204 527 4 -4 9 -102 10
-217 2 -133 7 -209 13 -208 9 2 136 46 144 50 2 1 4 73 6 160 1 91 7 175 14
197 16 50 62 96 95 96 13 0 28 5 32 11 8 14 -15 29 -41 27 -11 -1 -77 -4 -147
-5z"/>
<path d="M7190 6752 c-119 -64 -319 -162 -330 -162 -28 0 -4 -30 46 -56 31
-16 60 -34 65 -40 6 -7 -38 -76 -131 -205 -311 -430 -367 -509 -461 -646 -69
-103 -70 -103 -111 -103 -23 0 -56 -5 -74 -12 -31 -11 -35 -9 -80 28 -26 21
-95 77 -153 124 -59 47 -107 94 -109 105 -22 133 -109 209 -217 192 -93 -15
-145 -84 -145 -190 l0 -64 -61 -69 c-34 -38 -95 -109 -137 -159 -42 -49 -78
-92 -82 -95 -3 -3 -36 -44 -74 -92 l-68 -88 -64 0 c-91 0 -138 -29 -178 -107
-34 -68 -8 -175 53 -220 134 -100 323 8 304 174 l-6 52 124 148 c68 81 129
153 134 159 6 6 44 52 85 103 l75 91 56 0 c31 0 70 5 87 11 30 10 34 7 184
-119 148 -125 153 -130 158 -173 9 -72 41 -119 99 -147 67 -32 169 -15 213 35
39 44 51 85 44 152 l-6 66 75 105 c118 165 140 194 315 435 91 125 183 253
205 285 22 31 51 72 65 89 l25 32 53 -47 c83 -73 76 -95 99 317 3 65 2 118 -3
121 -5 3 -38 -11 -74 -30z"/>
<path d="M7051 6112 c-62 -104 -151 -234 -243 -354 l-28 -37 0 -395 c0 -448 4
-423 -81 -446 -50 -14 -41 -28 21 -32 l45 -3 3 -362 c1 -200 5 -363 8 -363 21
0 235 138 302 196 l42 36 0 254 c0 280 -5 259 63 254 38 -2 36 26 -3 35 -67
15 -65 -6 -68 667 -2 471 -5 608 -15 608 -7 0 -27 -26 -46 -58z"/>
<path d="M5580 5397 l-85 -92 5 -665 5 -664 35 -8 c105 -23 273 -49 285 -44
13 5 15 100 15 708 l0 703 -84 78 c-47 42 -86 77 -88 77 -2 0 -42 -42 -88 -93z"/>
<path d="M6376 5045 c-44 -47 -87 -87 -97 -90 -12 -4 -38 9 -74 35 -31 23 -59
39 -63 36 -5 -6 -4 -1097 2 -1103 4 -4 209 34 271 50 l50 13 3 572 c1 315 -1
572 -5 572 -5 0 -44 -39 -87 -85z"/>
<path d="M5164 4804 c-33 -43 -177 -163 -240 -200 l-44 -26 0 -145 c0 -127 2
-148 18 -159 27 -22 151 -104 156 -104 2 0 34 -18 70 -40 36 -22 70 -40 76
-40 7 0 10 127 10 375 0 230 -4 375 -9 375 -6 0 -22 -16 -37 -36z"/>
</g>
</svg>
